PathFileType	4	(X/Y/Z)	40_2_67_p1_0-356.trc
DataRate	CameraRate	NumFrames	NumMarkers	Units	OrigDataRate	OrigDataStartFrame	OrigNumFrames
55.0	55.0	5	27	m	55.0	89	357
Frame#	Time	RHip			RKnee			RAnkle			RBigToe			RSmallToe			RHeel			LHip			LKnee			LAnkle			LBigToe			LSmallToe			LHeel			Neck			Head			Nose			RShoulder			RElbow			RWrist			RThumb			RIndex			RPinky			LShoulder			LElbow			LWrist			LThumb			LIndex			LPinky			
		X1	Y1	Z1	X2	Y2	Z2	X3	Y3	Z3	X4	Y4	Z4	X5	Y5	Z5	X6	Y6	Z6	X7	Y7	Z7	X8	Y8	Z8	X9	Y9	Z9	X10	Y10	Z10	X11	Y11	Z11	X12	Y12	Z12	X13	Y13	Z13	X14	Y14	Z14	X15	Y15	Z15	X16	Y16	Z16	X17	Y17	Z17	X18	Y18	Z18	X19	Y19	Z19	X20	Y20	Z20	X21	Y21	Z21	X22	Y22	Z22	X23	Y23	Z23	X24	Y24	Z24	X25	Y25	Z25	X26	Y26	Z26	X27	Y27	Z27	
89	1.6181818181818182	0.33830905588322957	0.6060549364601235	0.8333810801096534	0.33274408783508397	0.7599937563548185	1.292622813866135	0.3041653003703093	0.8641446803641456	1.6684474178527802	0.3022246068202465	0.736194698751292	1.7292611801243292	0.3625942248115419	0.7490717738046524	1.727261539892288	0.2670056618754931	0.9752210985834645	1.7291608654249715	0.14775350305962973	0.5840994780795052	0.8342453772853866	0.11545688079103966	0.7626948410094667	1.2659736332780185	0.1050202523482201	0.8592654253174937	1.6627285113567403	0.14663558313800634	0.7007949551883703	1.7106211765129438	0.0832201103011434	0.7238768590106364	1.711017002547684	0.11762028836223905	0.907203221813076	1.7215018147969816	0.26299846677524374	0.4731859936112671	0.3090443378087815	0.2917426540493804	0.3735488064304979	0.09136767314273507	0.3120361454056972	0.3593107228447283	0.22148074364167994	0.38935597366035485	0.5112728340880112	0.391905803554203	0.440155447316872	0.5422050075777312	0.6853141696011161	0.341409246753996	0.5008404580367558	0.8884989400352046	0.2660217733155959	0.4960179815665911	0.9827812668988604	0.2657570787354675	0.4998584013535615	0.9952031606497328	0.29206743204687824	0.4629135554262037	0.9847052967630132	0.1079484352360728	0.497214242821089	0.3860503976099375	0.09053239101104842	0.4999087809944437	0.6661194371479874	0.22286153805846193	0.4837209714180043	0.8947165066092692	0.3108630628024109	0.4349395776082812	0.9416043310418378	0.3104823093152653	0.43865531458631507	0.9759020140658734	0.25905595520298474	0.5032058046275582	0.9984694304644518
90	1.6363636363636365	0.33837417079201537	0.6061110182366414	0.8333060362938961	0.32720399010431167	0.7758201840732928	1.2879139087033762	0.30418876036915593	0.8641628854554526	1.6684792093015999	0.3022927905824459	0.7361298593781495	1.7293098352155627	0.36246119628305745	0.7487739281997419	1.7273028819307579	0.2675738728438404	0.974395246301884	1.7333609627893052	0.1518749833424511	0.5864669684302121	0.834192756684232	0.11538984601639259	0.7627559376446439	1.2658883540762165	0.10496167097227516	0.8593891125759037	1.6627950461792056	0.1465275019583725	0.7010939442125365	1.7106869807161538	0.08330604215970015	0.7235469994055995	1.7108927036310657	0.11046467353539016	0.924660312888077	1.7280326711112672	0.26306458103047253	0.47328022106220474	0.30912635694818463	0.2970485756949636	0.3623345494456578	0.09309409901263295	0.31223008552452725	0.35940793277818067	0.22137509980221737	0.3894741572175447	0.5113328814302371	0.3920045551257264	0.4304867245566218	0.5713462250494729	0.6877157893344459	0.33506364833429353	0.4879163648667143	0.8876521483698063	0.27289505162357325	0.4836221023700835	0.9842744895227683	0.27202767355193785	0.4849202827713863	0.9916260851927207	0.2867596724964564	0.4743421385496787	0.9827756322676295	0.10805970650965938	0.4970085946612551	0.386021783212145	0.09039814385719627	0.4998081127894997	0.6692933249007423	0.22129542256532422	0.47178781218403726	0.8935794923621071	0.3107210512637041	0.43463135013690135	0.9416511097275504	0.3102324537616311	0.4382478023148004	0.9759391162178103	0.2589950148569851	0.502591515311236	0.998309176095161
91	1.6545454545454545	0.34095901055887823	0.6181403555331076	0.8304495597458871	0.32720979959400326	0.7755637590634361	1.2878261804070423	0.30423238253419044	0.8639860704884955	1.6684125714526694	0.30312238805067515	0.7388114252694571	1.7345384076142136	0.36259765717329445	0.7480790212526995	1.727012460535379	0.26759889684886884	0.9742176487688827	1.7333808370577546	0.15199907989173173	0.5865260107711253	0.834262366679475	0.11496145613094691	0.7636991960640737	1.2623012360842902	0.10558873595262203	0.8625165738360641	1.6684606342657888	0.14662288255075542	0.7005946496894898	1.710645245651676	0.08339964820116354	0.7235736703458594	1.711041080561311	0.11029378090049502	0.9246454595203148	1.7283137498207175	0.26313831972547147	0.4733276326858444	0.30915467856243917	0.29711704744233836	0.3622493119487657	0.09313135384350325	0.31591794429613435	0.3608346263810075	0.22112514246330214	0.38955314410972514	0.5114695190433247	0.3920098527984214	0.43019583201896083	0.5717241814954769	0.6874218024361334	0.33439166483458244	0.4887565585760334	0.8910188473939405	0.26729538359570765	0.49609613630640914	0.9898473108218159	0.26589195358704154	0.49794194194900604	0.9941775500377555	0.2763441706833907	0.487576669153777	0.9892660473884943	0.10817615674774902	0.4968136569531189	0.3859242875712004	0.09113993915938928	0.5009339883994743	0.666839849354121	0.22121787577296453	0.4718528240388354	0.8936524184442788	0.3092927357830039	0.42214012353438213	0.9444527875500935	0.3059540974250627	0.4367369827533134	0.9759257252690359	0.2584630858782562	0.5032069963864908	0.9985876612343987
92	1.6727272727272726	0.34052275369942636	0.6159153252488608	0.8267186410023164	0.33309434310452124	0.7596904433068417	1.2837896047575514	0.30424457252184656	0.8639781339253291	1.6683222890612113	0.3024015259519247	0.7361475214481203	1.7292468947502206	0.36491881313688007	0.7632011966699509	1.7321246032467001	0.2676033289363437	0.9741640705070653	1.7332549099690484	0.15425351380407296	0.5704947631196783	0.8324333059433261	0.11495914439674655	0.7636312530051359	1.262333042472379	0.10499327804394257	0.8592153280418138	1.6628710107334956	0.14777728460628148	0.7153840637065767	1.715865291764277	0.0844974034830693	0.7381026137836876	1.7160424354552613	0.11750950699956585	0.9070899542389083	1.7217471060496665	0.26314966751740004	0.4734737808080719	0.30915080165457126	0.3029786421603767	0.37434138151548224	0.09090823081223619	0.3160505273103005	0.3607581626368775	0.22105999123160058	0.39225289729415685	0.5236120197772772	0.39147709755657084	0.4248675391188628	0.586268937350519	0.6919811305630421	0.3302527490797799	0.48756543337789293	0.8913458017892186	0.2659606761615333	0.4955417060466925	0.9894947494231355	0.2646665161009144	0.4972288140507495	0.9937664154446392	0.2695703681637807	0.5006981136490263	0.9921959223507001	0.10815564405845195	0.49684757733502877	0.38593689304405754	0.09067504618062978	0.5013990399447483	0.6700710161134683	0.22110507778745406	0.47167983890536674	0.8938583423596362	0.30376751877528024	0.43288968875551226	0.9497202148640216	0.29857160047190523	0.43684123971598027	0.9790579765421673	0.2543683234748716	0.500833734704565	0.99844413476715
93	1.690909090909091	0.3456216213634907	0.5985845670070435	0.8209939555797305	0.33587946928799084	0.7731291670917679	1.2866181727854977	0.3043043236110786	0.8639344700634947	1.6683177713174997	0.3024035966450006	0.7363179751803646	1.729354646661548	0.3649866877287509	0.7633747086486959	1.732239065817094	0.26472689027136953	0.9590960858595656	1.723908257913142	0.15403683036972285	0.5677947374372146	0.8278553432646624	0.11500575223034988	0.7634896233797165	1.2622076085165166	0.10501552733884566	0.8591545035918523	1.6627039169870037	0.14774699819798617	0.715611919619356	1.7159528070325312	0.08445669344398614	0.7382599969446226	1.716123742165842	0.11759025514564733	0.9067617256856991	1.7214242019476322	0.26842161435450207	0.4619406392037849	0.3100538866241553	0.30820697567058286	0.3630156118629514	0.09275557827659875	0.32114202643049	0.34978231735577775	0.21890380968645168	0.392617719877589	0.526197039580032	0.3988103281974282	0.4224857535931508	0.5742384886193336	0.6916162516016838	0.3301573041545002	0.4871007287648355	0.8916626935443875	0.26587507344472244	0.4944124124114866	0.9860756082528374	0.26488054241495335	0.4960748958557385	0.9932554690973188	0.2659673930700563	0.4995222171838775	0.991886788398274	0.12035397963108074	0.4718769389774612	0.3867651191033535	0.0971700611296558	0.49914966294473234	0.6690081633438635	0.21884954036942	0.4604735884848877	0.8963745389221114	0.30031455550774533	0.43183699176948803	0.9466754142441542	0.2933100091980385	0.4493250041096979	0.9814242166912412	0.24859210155858788	0.5123122987908048	1.0003935874443362
